<svg xmlns="http://www.w3.org/2000/svg" xmlns:xlink="http://www.w3.org/1999/xlink" width="200" zoomAndPan="magnify" viewBox="0 0 150 149.999998" height="200" preserveAspectRatio="xMidYMid meet" version="1.0"><defs><clipPath id="d1d953b561"><path d="M 84.769531 69.851562 L 150 69.851562 L 150 150 L 84.769531 150 Z M 84.769531 69.851562 " clip-rule="nonzero"/></clipPath><clipPath id="5ba0c5432f"><path d="M 28 42 L 78.75 42 L 78.75 57 L 28 57 Z M 28 42 " clip-rule="nonzero"/></clipPath><clipPath id="7dbb2d6e97"><path d="M 0 0 L 78.75 0 L 78.75 150 L 0 150 Z M 0 0 " clip-rule="nonzero"/></clipPath><clipPath id="2bbf21665d"><path d="M 0 0 L 150 0 L 150 65.25 L 0 65.25 Z M 0 0 " clip-rule="nonzero"/></clipPath></defs><g clip-path="url(#d1d953b561)"><path fill="#ffffff" d="M 84.769531 69.851562 L 150.019531 69.851562 L 150.019531 150.101562 L 84.769531 150.101562 Z M 84.769531 69.851562 " fill-opacity="1" fill-rule="nonzero"/><path fill="#000000" d="M 109.191406 129.875 L 84.875 113.703125 L 109.191406 97.53125 L 109.191406 88.195312 L 117.777344 88.195312 C 119.234375 88.195312 120.597656 88.5 121.824219 89.097656 C 123.019531 89.679688 123.964844 90.554688 124.707031 91.761719 C 125.441406 92.960938 125.816406 94.507812 125.816406 96.355469 C 125.816406 98.203125 125.441406 99.746094 124.707031 100.945312 C 123.960938 102.15625 123.019531 103.027344 121.824219 103.609375 C 120.597656 104.210938 119.238281 104.511719 117.777344 104.511719 L 109.195312 104.511719 L 109.195312 122.855469 L 122.019531 122.855469 C 127.214844 122.855469 131.972656 121.800781 136.164062 119.71875 C 140.394531 117.621094 143.800781 114.542969 146.28125 110.570312 C 148.761719 106.597656 150.019531 101.8125 150.019531 96.355469 C 150.019531 90.898438 148.757812 86.023438 146.277344 82.082031 C 143.796875 78.148438 140.394531 75.089844 136.164062 72.992188 C 131.96875 70.910156 127.210938 69.855469 122.023438 69.855469 L 84.769531 69.855469 L 84.769531 150.097656 L 109.191406 150.097656 Z M 109.191406 129.875 " fill-opacity="1" fill-rule="nonzero"/></g><g clip-path="url(#5ba0c5432f)"><path fill="#000000" d="M 114.84375 56.25 L 35.15625 56.25 C 31.21875 56.25 28.125 53.0625 28.125 49.21875 C 28.125 45.375 31.21875 42.1875 35.15625 42.1875 L 114.9375 42.1875 C 118.78125 42.1875 121.875 45.28125 121.875 49.21875 C 121.875 53.15625 118.78125 56.25 114.84375 56.25 Z M 114.84375 56.25 " fill-opacity="1" fill-rule="nonzero"/></g><path fill="#000000" d="M 67.96875 84.375 L 35.15625 84.375 C 31.21875 84.375 28.125 81.1875 28.125 77.34375 C 28.125 73.5 31.21875 70.3125 35.15625 70.3125 L 67.96875 70.3125 C 71.8125 70.3125 75 73.40625 75 77.34375 C 75 81.28125 71.8125 84.375 67.96875 84.375 Z M 67.96875 84.375 " fill-opacity="1" fill-rule="nonzero"/><g clip-path="url(#7dbb2d6e97)"><path fill="#000000" d="M 131.25 0 L 18.75 0 C 8.421875 0 0 8.480469 0 18.613281 L 0 103.3125 C 0 113.710938 8.421875 121.925781 18.75 121.925781 L 46.875 121.925781 L 46.875 146.441406 C 46.875 149.34375 50.101562 151.03125 52.476562 149.304688 L 89.0625 122.457031 L 131.25 122.457031 C 141.578125 122.457031 150 113.976562 150 103.84375 L 150 18.613281 C 150 8.480469 141.589844 0 131.25 0 Z M 135.9375 103.84375 C 135.9375 106.425781 133.8125 108.5625 131.25 108.5625 L 84.375 108.5625 L 60.9375 126.265625 L 60.9375 108.5625 L 18.75 108.5625 C 16.1875 108.5625 14.0625 106.425781 14.0625 103.84375 L 14.0625 18.878906 C 14.0625 16.300781 16.1875 14.160156 18.75 14.160156 L 131.25 14.160156 C 133.8125 14.160156 135.9375 16.300781 135.9375 18.878906 Z M 135.9375 103.84375 " fill-opacity="1" fill-rule="nonzero"/></g><path fill="#000000" d="M 114.84375 56.25 L 35.15625 56.25 C 31.21875 56.25 28.125 53.0625 28.125 49.21875 C 28.125 45.375 31.21875 42.1875 35.15625 42.1875 L 114.9375 42.1875 C 118.78125 42.1875 121.875 45.28125 121.875 49.21875 C 121.875 53.15625 118.78125 56.25 114.84375 56.25 Z M 114.84375 56.25 " fill-opacity="1" fill-rule="nonzero"/><g clip-path="url(#2bbf21665d)"><path fill="#000000" d="M 131.25 0 L 18.75 0 C 8.421875 0 0 8.480469 0 18.613281 L 0 103.3125 C 0 113.710938 8.421875 121.925781 18.75 121.925781 L 46.875 121.925781 L 46.875 146.441406 C 46.875 149.34375 50.101562 151.03125 52.476562 149.304688 L 89.0625 122.457031 L 131.25 122.457031 C 141.578125 122.457031 150 113.976562 150 103.84375 L 150 18.613281 C 150 8.480469 141.589844 0 131.25 0 Z M 135.9375 103.84375 C 135.9375 106.425781 133.8125 108.5625 131.25 108.5625 L 84.375 108.5625 L 60.9375 126.265625 L 60.9375 108.5625 L 18.75 108.5625 C 16.1875 108.5625 14.0625 106.425781 14.0625 103.84375 L 14.0625 18.878906 C 14.0625 16.300781 16.1875 14.160156 18.75 14.160156 L 131.25 14.160156 C 133.8125 14.160156 135.9375 16.300781 135.9375 18.878906 Z M 135.9375 103.84375 " fill-opacity="1" fill-rule="nonzero"/></g></svg>
